<?xml version="1.0" standalone="no"?>
<!DOCTYPE svg PUBLIC "-//W3C//DTD SVG 20010904//EN"
 "http://www.w3.org/TR/2001/REC-SVG-20010904/DTD/svg10.dtd">
<svg version="1.0" xmlns="http://www.w3.org/2000/svg"
 width="299.000000pt" height="194.000000pt" viewBox="0 0 299.000000 194.000000"
 preserveAspectRatio="xMidYMid meet">
<metadata>
Created by potrace 1.10, written by Peter Selinger 2001-2011
</metadata>
<g transform="translate(0.000000,194.000000) scale(0.100000,-0.100000)"
fill="#000000" stroke="none">
<path d="M647 1879 c-235 -31 -438 -182 -542 -402 -51 -107 -68 -198 -62 -337
9 -199 60 -314 202 -456 146 -147 268 -202 465 -211 132 -6 225 10 315 52 31
15 59 25 62 22 3 -3 -19 -29 -49 -57 -67 -64 -162 -112 -234 -118 l-54 -4 0
-155 0 -154 58 6 c225 25 407 136 531 320 57 85 85 156 102 252 7 37 16 73 21
78 6 6 7 3 3 -7 -5 -12 5 -28 32 -53 131 -123 289 -184 476 -185 219 0 397 84
550 260 74 84 146 245 113 250 -5 1 -31 -39 -56 -90 -26 -50 -56 -101 -67
-113 -10 -13 -22 -31 -26 -40 -3 -9 -12 -17 -20 -17 -16 0 -63 -51 -59 -64 2
-5 -4 -6 -13 -2 -9 3 -14 2 -11 -3 3 -4 -4 -17 -17 -27 -21 -19 -21 -19 -7 1
14 19 13 19 -10 -1 -14 -11 -40 -27 -57 -34 -18 -7 -33 -16 -33 -21 0 -5 -3
-8 -7 -8 -20 3 -34 -2 -28 -11 3 -6 -1 -7 -9 -4 -9 3 -16 2 -16 -2 0 -5 -10
-10 -22 -10 -13 -1 -54 -7 -93 -14 -46 -8 -103 -10 -165 -5 -52 4 -105 8 -117
8 -13 1 -23 5 -23 9 0 3 -13 9 -28 13 -16 3 -65 28 -110 54 -44 27 -84 46 -87
42 -4 -3 -5 1 -3 9 2 8 -2 14 -9 13 -6 -2 -14 5 -17 15 -3 10 -20 26 -37 36
-31 18 -31 18 -55 -7 -12 -14 -20 -28 -16 -31 3 -4 1 -10 -6 -15 -6 -4 -13
-24 -14 -44 -2 -20 -6 -37 -10 -37 -3 0 -9 -14 -13 -30 -9 -40 -52 -125 -89
-175 -34 -45 -136 -145 -149 -145 -4 0 -5 -5 -1 -12 5 -7 2 -9 -8 -5 -9 3 -23
-2 -33 -13 -9 -10 -30 -22 -46 -25 -16 -4 -33 -14 -39 -23 -5 -9 -10 -14 -10
-10 0 4 -18 1 -41 -7 -22 -8 -69 -18 -105 -21 l-65 -7 3 109 3 108 39 8 c22 5
44 12 50 17 6 5 26 12 44 16 17 3 32 10 32 14 0 4 12 14 27 22 58 31 126 111
115 137 -11 31 -28 42 -42 29 -10 -9 -11 -9 -5 1 6 12 3 12 -15 2 -12 -6 -24
-9 -27 -6 -3 3 -22 -3 -42 -13 -58 -29 -164 -44 -265 -38 -50 3 -102 9 -116
13 -14 3 -35 7 -47 8 -11 0 -19 4 -17 8 2 3 -10 9 -28 13 -18 4 -41 14 -50 23
-10 8 -18 12 -18 9 0 -3 -12 5 -26 18 -15 14 -33 25 -40 25 -8 0 -14 5 -14 12
0 6 -3 9 -6 6 -5 -6 -86 71 -135 128 -14 17 -34 49 -44 72 -11 23 -22 42 -27
42 -4 0 -8 3 -7 8 2 15 -14 52 -23 52 -5 0 -8 6 -5 13 2 6 0 23 -5 37 -12 33
-26 230 -15 223 4 -2 5 6 2 19 -3 13 -1 44 5 68 6 25 13 52 14 60 2 8 9 31 17
50 7 19 11 35 8 35 -2 0 6 14 19 32 12 17 22 35 22 40 0 4 20 31 45 59 24 28
42 54 40 58 -3 3 -2 4 1 2 5 -4 44 27 90 72 8 7 14 10 14 5 0 -4 4 -3 8 4 9
14 128 74 187 94 40 14 315 20 360 7 30 -8 58 -18 78 -29 10 -5 23 -7 29 -3 6
4 8 3 5 -3 -3 -5 11 -15 31 -23 49 -17 182 -130 206 -174 10 -19 21 -34 25
-33 3 1 8 -2 10 -8 7 -16 48 -45 63 -45 17 1 57 36 87 78 13 18 38 48 57 66
19 18 31 36 27 40 -4 4 0 4 10 0 9 -3 17 -2 17 2 0 5 17 22 37 38 20 16 33 23
28 15 -6 -10 -3 -10 11 2 20 17 82 49 95 49 4 0 20 5 36 12 15 6 35 13 43 16
8 3 90 6 181 6 118 1 170 -3 181 -11 8 -7 18 -10 21 -6 4 3 7 2 7 -4 0 -6 16
-14 35 -17 19 -4 35 -11 35 -15 0 -5 12 -12 26 -15 14 -4 37 -19 51 -34 15
-15 23 -20 18 -12 -4 8 11 -4 34 -28 22 -23 47 -41 53 -40 7 2 12 -4 10 -13
-1 -9 4 -19 11 -22 17 -6 99 -130 123 -184 10 -24 21 -43 25 -43 4 0 10 -10
14 -22 8 -22 8 -22 12 4 5 31 -27 111 -76 188 -47 75 -164 187 -242 233 -209
122 -501 122 -708 0 -80 -48 -177 -136 -222 -202 -19 -28 -36 -50 -39 -50 -3
0 -20 22 -39 50 -81 118 -252 238 -391 273 -77 19 -203 26 -283 15z"/>
<path d="M2660 1623 c0 -254 1 -266 17 -250 16 15 18 44 21 230 1 116 5 218 7
225 3 8 31 12 94 12 72 0 90 -3 95 -16 3 -9 6 -303 6 -654 0 -535 -2 -639 -14
-649 -9 -8 -45 -11 -98 -9 l-83 3 -5 220 c-3 121 -9 226 -13 233 -23 35 -27
-3 -27 -243 l0 -255 140 0 140 0 0 710 0 710 -140 0 -140 0 0 -267z"/>
<path d="M655 1610 c-11 -4 -26 -5 -34 -2 -10 4 -12 1 -6 -8 5 -8 3 -11 -6 -8
-18 7 -126 -49 -139 -71 -5 -9 -10 -13 -10 -9 0 15 -90 -87 -90 -102 0 -6 -4
-10 -10 -10 -5 0 -7 -7 -4 -15 4 -8 2 -15 -4 -15 -35 0 -58 -226 -32 -320 12
-47 59 -130 73 -130 5 0 6 -4 3 -9 -6 -10 101 -111 117 -111 6 0 18 -7 28 -16
9 -8 26 -16 38 -17 11 -1 21 -5 21 -10 0 -4 5 -5 10 -2 5 3 10 2 10 -2 0 -10
12 -12 113 -19 50 -4 83 -2 91 5 8 6 20 9 29 5 8 -3 18 0 22 5 3 6 11 9 16 6
5 -4 9 -1 9 4 0 6 7 11 16 11 18 0 78 34 108 62 10 9 24 14 30 11 6 -3 8 -3 4
1 -3 4 2 16 13 27 11 11 17 24 14 29 -3 6 1 7 10 4 11 -5 14 -2 8 12 -5 13 -3
15 7 9 8 -5 11 -4 6 3 -3 6 1 17 9 26 40 40 59 108 60 211 0 93 -18 195 -35
195 -4 0 -7 6 -7 13 0 21 -44 87 -54 81 -5 -3 -8 0 -7 8 2 7 -2 12 -9 11 -7
-2 -10 4 -6 13 3 8 2 14 -3 13 -19 -3 -35 1 -30 9 5 9 -99 82 -118 82 -7 0
-16 3 -19 7 -16 15 -209 26 -242 13z m255 -61 c81 -38 160 -115 200 -196 29
-57 35 -82 38 -153 9 -179 -78 -320 -245 -397 -51 -24 -70 -27 -158 -27 -86 0
-108 4 -155 26 -341 158 -327 630 23 759 78 28 222 22 297 -12z"/>
<path d="M1854 1603 c-9 -7 -20 -10 -25 -8 -9 6 -109 -45 -109 -56 0 -5 -7 -9
-15 -9 -9 0 -18 -7 -21 -15 -4 -8 -13 -15 -21 -15 -13 0 -13 -3 -3 -15 11 -13
10 -14 -4 -9 -12 5 -19 0 -23 -14 -3 -11 -11 -23 -19 -26 -8 -3 -14 -15 -14
-26 0 -12 -4 -19 -9 -15 -5 3 -12 -5 -16 -17 -4 -13 -14 -39 -23 -58 -27 -56
-23 -240 6 -302 12 -26 22 -50 22 -53 0 -15 84 -113 111 -130 9 -5 35 -23 59
-38 78 -53 223 -80 312 -59 86 21 181 69 192 98 3 8 10 12 16 9 5 -3 10 -2 10
4 0 6 12 22 27 36 15 14 24 25 20 25 -4 0 4 12 18 26 15 14 24 33 21 41 -3 8
-1 11 4 8 9 -5 12 1 9 21 0 4 4 10 10 13 27 17 36 281 10 281 -5 0 -6 6 -3 13
10 26 -109 207 -137 207 -4 0 -20 11 -34 24 -14 13 -39 26 -56 30 -18 3 -28
10 -24 17 5 6 0 10 -11 8 -11 -2 -36 3 -57 10 -45 15 -199 11 -223 -6z m290
-56 c80 -37 176 -135 207 -213 18 -47 23 -79 23 -159 1 -95 -1 -104 -33 -170
-43 -87 -110 -153 -198 -197 -63 -31 -74 -33 -168 -33 -91 0 -106 3 -165 31
-252 119 -318 438 -133 645 87 96 173 130 313 126 77 -3 106 -9 154 -30z"/>
<path d="M1484 411 c-47 -12 -87 -39 -114 -79 -20 -28 -25 -48 -25 -98 0 -55
4 -67 31 -101 33 -41 63 -59 113 -69 l31 -6 0 181 c0 99 -1 181 -2 180 -2 -1
-17 -4 -34 -8z m-10 -59 c12 -19 10 -188 -2 -218 l-13 -31 -32 31 c-36 35 -36
34 -41 95 -4 48 17 97 47 107 9 3 15 10 12 15 -4 5 1 9 9 9 8 0 17 -4 20 -8z"/>
<path d="M1550 327 l0 -83 43 2 c29 1 43 7 45 18 3 11 -4 16 -22 16 -16 0 -26
6 -26 15 0 9 9 15 25 15 18 0 25 5 25 19 0 14 -6 17 -25 13 -18 -3 -25 0 -25
12 0 10 9 16 25 16 18 0 25 5 25 20 0 17 -7 20 -45 20 l-45 0 0 -83z"/>
<path d="M1656 334 c1 -41 3 -77 5 -79 2 -1 41 -5 87 -7 73 -3 82 -1 82 14 0
13 -8 18 -25 18 -16 0 -25 6 -25 15 0 10 10 15 28 15 21 0 32 -7 40 -25 21
-46 92 -56 135 -18 9 9 17 22 17 30 0 18 -35 17 -50 -2 -20 -24 -59 -19 -66 9
-15 60 27 85 81 50 23 -15 25 -15 31 0 3 9 12 16 20 16 11 0 14 -16 14 -66 0
-57 2 -65 18 -62 14 3 17 14 16 65 -1 52 2 62 18 66 16 5 18 -2 18 -64 0 -62
2 -69 20 -69 18 0 20 7 20 65 0 57 2 65 19 65 28 0 34 -27 10 -44 -20 -13 -20
-15 -4 -46 16 -31 40 -48 52 -36 4 4 -1 19 -10 35 -15 25 -15 30 -2 41 12 10
15 9 15 -5 0 -25 55 -75 82 -75 57 0 96 59 77 117 -22 69 -111 74 -147 8 -10
-17 -11 -17 -12 -3 0 34 -39 48 -137 48 -78 0 -93 -3 -93 -16 0 -14 -2 -14
-22 0 -33 23 -75 20 -103 -9 -14 -13 -25 -30 -25 -38 0 -9 -9 -12 -30 -9 -36
5 -41 32 -6 32 20 0 36 16 36 36 0 2 -23 4 -51 4 l-52 0 6 -65 6 -65 -27 0
c-27 0 -27 0 -24 65 4 63 3 65 -20 65 -24 0 -25 -2 -22 -76z m692 -3 c4 -28
-14 -51 -42 -51 -47 0 -63 57 -24 84 19 13 25 14 43 2 11 -7 21 -23 23 -35z"/>
<path d="M2400 324 c0 -75 2 -85 17 -82 14 3 17 12 14 51 -1 26 0 47 2 47 3 0
19 -22 36 -50 47 -76 61 -68 61 35 0 80 -1 85 -21 85 -19 0 -21 -4 -15 -50 3
-27 3 -50 -1 -50 -5 0 -20 23 -35 50 -43 77 -58 68 -58 -36z"/>
<path d="M2550 325 c0 -78 2 -85 20 -85 18 0 20 7 20 85 0 78 -2 85 -20 85
-18 0 -20 -7 -20 -85z"/>
<path d="M2625 385 c-54 -53 -13 -145 63 -145 24 0 72 37 72 56 0 19 -39 18
-46 -1 -8 -19 -48 -19 -63 -1 -7 8 -11 27 -9 43 2 23 9 29 33 31 16 2 34 -2
40 -10 13 -17 45 -20 45 -4 0 7 -10 22 -23 34 -32 30 -81 29 -112 -3z"/>
<path d="M2792 235 c-2 -173 -1 -175 20 -175 44 0 107 41 134 86 22 38 26 54
22 103 -3 39 -11 68 -27 89 -25 36 -87 72 -124 72 l-23 0 -2 -175z m52 123
c-3 -4 -3 -8 0 -8 2 0 12 -3 22 -7 13 -5 15 -3 9 7 -5 9 -4 11 4 6 6 -4 9 -10
7 -14 -6 -10 21 -32 28 -24 4 3 4 -1 1 -10 -3 -8 1 -23 10 -31 33 -34 -28
-162 -74 -154 -12 2 -14 24 -14 112 0 61 -4 115 -8 121 -5 7 -3 11 6 11 8 0
12 -4 9 -9z"/>
<path d="M1550 144 c0 -64 3 -85 13 -81 7 2 11 16 9 35 -3 30 -1 32 27 32 21
0 31 5 31 15 0 10 -10 15 -30 15 -23 0 -30 4 -30 20 0 16 7 20 30 20 20 0 30
5 30 15 0 11 -11 15 -40 15 l-40 0 0 -86z"/>
<path d="M1638 145 l-3 -85 48 0 c56 0 62 23 9 28 -25 3 -32 8 -32 25 0 18 6
22 32 22 17 0 33 6 35 13 3 8 -7 12 -31 12 -29 0 -36 4 -36 20 0 16 7 20 30
20 20 0 30 5 30 15 0 11 -11 15 -39 15 l-40 0 -3 -85z"/>
<path d="M1744 212 c-25 -24 -13 -55 29 -75 41 -19 45 -28 22 -47 -13 -10 -19
-9 -35 5 -11 10 -23 15 -27 11 -13 -13 13 -41 41 -44 63 -8 78 56 21 89 -35
21 -44 42 -24 54 5 4 20 -1 31 -12 15 -13 22 -15 25 -5 3 6 11 12 19 12 11 0
14 -16 14 -70 0 -57 3 -70 16 -70 13 0 15 11 12 70 -3 66 -2 70 18 70 20 0 21
-4 16 -70 -4 -60 -2 -70 12 -70 13 0 16 13 17 78 l0 77 28 -75 c15 -41 33 -75
40 -75 12 0 69 124 70 153 2 34 -25 -1 -45 -59 -13 -38 -24 -58 -28 -49 -3 8
-14 38 -23 65 l-19 50 -107 1 c-84 1 -112 -2 -123 -14z"/>
<path d="M2104 193 c-49 -116 -54 -133 -40 -133 8 0 18 9 21 20 9 29 80 29 88
0 5 -20 27 -29 27 -11 0 5 -13 42 -30 82 -16 41 -30 75 -30 77 0 1 -4 2 -10 2
-5 0 -17 -17 -26 -37z m41 -45 c7 -25 5 -28 -20 -28 -22 0 -26 3 -20 18 4 9
10 25 12 35 7 23 19 11 28 -25z"/>
<path d="M2210 145 l0 -85 40 0 c30 0 40 4 40 16 0 11 -8 15 -27 12 l-28 -3
-3 73 c-4 101 -22 91 -22 -13z"/>
<path d="M2358 218 c-22 -18 -31 -48 -14 -48 8 0 16 9 19 21 4 15 12 20 29 17
40 -5 33 -39 -17 -88 -25 -24 -45 -48 -45 -52 0 -4 25 -8 55 -8 30 0 55 5 55
10 0 6 -16 10 -36 10 l-35 0 33 40 33 39 3 -32 c4 -40 28 -67 58 -67 34 0 54
26 54 71 0 21 4 39 9 39 5 0 13 9 16 20 8 24 50 27 59 4 8 -20 -4 -41 -48 -83
-20 -19 -36 -39 -36 -43 0 -4 25 -8 55 -8 30 0 55 5 55 10 0 6 -16 10 -35 10
-35 0 -48 16 -20 26 8 3 24 21 36 40 20 32 20 36 5 59 -20 31 -59 33 -79 5
l-14 -20 -18 20 c-22 24 -52 26 -77 3 -17 -15 -19 -15 -36 0 -22 20 -43 22
-64 5z m167 -73 c0 -60 0 -60 -30 -60 -29 0 -30 2 -33 49 -4 65 2 78 35 74 27
-3 28 -5 28 -63z"/>
<path d="M2718 213 c-23 -27 -68 -101 -68 -113 0 -5 18 -10 40 -10 29 0 40 -4
40 -15 0 -21 17 -19 22 2 6 29 -3 153 -11 153 -4 0 -15 -8 -23 -17z m9 -100
c-3 -2 -17 -3 -31 -1 l-25 3 27 42 27 43 3 -41 c2 -23 1 -43 -1 -46z"/>
</g>
</svg>
